<svg xmlns="http://www.w3.org/2000/svg" width="51.263" height="51.263" viewBox="0 0 51.263 51.263"><defs><style>.a,.b{fill:none;stroke:#fff;stroke-linecap:round;stroke-miterlimit:10;}.b{stroke-width:2px;fill-rule:evenodd;}</style></defs><g transform="translate(-4559.5 -1775.237)"><g transform="translate(4692.63 1812.592)"><line class="a" y2="2.541" transform="translate(-107.499 10.868)"/><line class="a" y2="2.541" transform="translate(-107.499 -36.855)"/><line class="a" x1="2.23" y2="1.209" transform="translate(-129.592 -0.953)"/><line class="a" x1="2.541" transform="translate(-132.63 -11.723)"/><line class="a" x1="2.541" transform="translate(-84.908 -11.723)"/><line class="a" x1="1.209" y1="2.23" transform="translate(-119.478 -33.816)"/><line class="a" x1="1.209" y1="2.23" transform="translate(-96.728 8.14)"/><line class="a" x1="1.242" y2="2.212" transform="translate(-119.804 7.978)"/><line class="a" x1="1.242" y2="2.212" transform="translate(-96.436 -33.636)"/><line class="a" y1="1.209" x2="2.23" transform="translate(-87.636 -23.703)"/><path class="b" d="M-88.111,7.8c4.413,2.854,6.991,4.75,6.991,4.75l16.452-8.957" transform="translate(-26.378 -24.271)"/><line class="a" x2="2.212" y2="1.242" transform="translate(-129.412 -24.028)"/><line class="a" x1="2.212" y1="1.242" transform="translate(-87.798 -0.661)"/></g></g></svg>