<?xml version="1.0" encoding="utf-8"?>
<!-- Generator: Adobe Illustrator 25.0.0, SVG Export Plug-In . SVG Version: 6.00 Build 0)  -->
<svg version="1.1" id="Layer_1" xmlns="http://www.w3.org/2000/svg" xmlns:xlink="http://www.w3.org/1999/xlink" x="0px" y="0px"
	 viewBox="0 0 86 32" style="enable-background:new 0 0 86 32;" xml:space="preserve">
<style type="text/css">
	.st0{fill:#FFFFFF;}
</style>
<g id="Group_453">
	<g id="Group_285" transform="translate(42.606 8.525)">
		<path id="Path_10120" class="st0" d="M1.5,7.8C1.3,7.7,1.1,7.5,0.9,7.4C0.2,7-0.7,6.8-1.5,6.3c-0.4-0.2-0.6-0.5-0.8-0.8
			c-0.1-0.4-0.1-0.8,0.2-1.1C-2,4.2-1.7,4.1-1.5,4c1-0.3,2.1,0.3,2.5,1.3c0,0,0,0,0,0c0.1,0.3,0.1,0.5,0.2,0.8h0.5V3.4H1L1,4
			C0.4,3.5-0.4,3.3-1.2,3.3c-0.6,0-1.2,0.2-1.7,0.6c-0.6,0.6-0.9,1.5-0.6,2.3C-3.2,7-2.6,7.5-1.9,7.8c0.7,0.2,1.3,0.5,2,0.9
			c0.4,0.2,0.7,0.5,0.8,0.9c0.1,0.4-0.1,0.8-0.3,1c-0.3,0.3-0.6,0.4-1,0.4c-0.4,0.1-0.8,0-1.2-0.1c-0.3-0.1-0.5-0.3-0.7-0.5
			c-0.2-0.2-0.4-0.4-0.5-0.7C-3,9.4-3.1,9.1-3.1,8.8h-0.5l0.1,2.7h0.7l-0.1-0.5c0.3,0.2,0.6,0.4,1,0.5c0.5,0.1,0.9,0.2,1.4,0.2
			c0.3,0,0.7,0,1-0.1c0.3-0.1,0.6-0.2,0.9-0.4c0.9-0.6,1.2-1.9,0.5-2.8C1.8,8.1,1.6,7.9,1.5,7.8L1.5,7.8z"/>
		<path id="Path_10121" class="st0" d="M13.4,10.3c0-0.2,0-0.3,0-0.6l0-10.1H13c-0.1,0.1-0.1,0.1-0.2,0.2c-0.1,0.1-0.2,0.1-0.3,0.1
			c-0.2,0-0.4,0.1-0.6,0.1c-0.2,0-0.5,0-0.9,0v0.7l1.1-0.1c0,0.2,0,0.4,0,0.5c0,0.2,0,0.3,0,0.5V9c0,0.3,0,0.5,0,0.8
			c0,0.2,0,0.4-0.1,0.6c0,0.2-0.1,0.3-0.3,0.4c-0.2,0.1-0.4,0.2-0.5,0.1v0.5h3.2v-0.6l-1,0C13.4,10.6,13.4,10.4,13.4,10.3z"/>
		<path id="Path_10122" class="st0" d="M24.8,10.3c0-0.2,0-0.3,0-0.6l0-10.1h-0.5c-0.1,0.1-0.1,0.1-0.2,0.2
			c-0.1,0.1-0.2,0.1-0.3,0.1c-0.2,0-0.4,0.1-0.6,0.1c-0.2,0-0.5,0-0.9,0v0.7l1.1-0.1c0,0.2,0,0.4,0,0.5c0,0.2,0,0.3,0,0.5V9
			c0,0.3,0,0.5,0,0.8c0,0.2,0,0.4-0.1,0.6c0,0.2-0.1,0.3-0.3,0.4c-0.2,0.1-0.4,0.2-0.5,0.1v0.5h3.2v-0.6l-1,0
			C24.7,10.6,24.8,10.4,24.8,10.3z"/>
		<path id="Path_10123" class="st0" d="M27.8,1.6c0.1,0.1,0.2,0.1,0.3,0.2c0.2,0.1,0.4,0.1,0.6,0c0.1,0,0.2-0.1,0.3-0.2
			c0.1-0.1,0.1-0.2,0.2-0.3c0-0.1,0.1-0.2,0.1-0.4c0-0.1,0-0.3-0.1-0.4c0-0.1-0.1-0.2-0.2-0.3c-0.1-0.1-0.2-0.2-0.3-0.2
			C28.6,0,28.5,0,28.4,0c-0.1,0-0.2,0-0.3,0.1c-0.1,0-0.2,0.1-0.3,0.2c-0.3,0.3-0.3,0.7-0.2,1C27.6,1.4,27.7,1.5,27.8,1.6z"/>
		<path id="Path_10124" class="st0" d="M27.7,5.4V9c0,0.3,0,0.5,0,0.8c0,0.2,0,0.4-0.1,0.6c0,0.2-0.1,0.3-0.3,0.4
			c-0.2,0.1-0.4,0.2-0.5,0.1v0.5H30v-0.6l-1,0c0-0.2,0-0.3,0.1-0.5c0-0.2,0-0.3,0-0.6V3.4h-0.4c-0.1,0.1-0.1,0.1-0.2,0.2
			c-0.1,0.1-0.2,0.1-0.3,0.1c-0.2,0-0.4,0.1-0.6,0.1c-0.2,0-0.5,0-0.8,0v0.7l1.1-0.1c0,0.2,0,0.4,0,0.5C27.7,5.1,27.7,5.3,27.7,5.4z
			"/>
		<path id="Path_10125" class="st0" d="M35.2,3.6H33c0-0.5,0.1-1,0.1-1.4c0.1-0.4,0.1-0.7,0.3-1.1c0.1-0.3,0.2-0.5,0.4-0.7
			c0.2-0.2,0.4-0.3,0.7-0.3c0.1,0,0.1,0,0.2,0c-0.1,0-0.1,0.4-0.1,0.4c0,0.4,0.2,0.8,0.6,0.9c0.2,0.1,0.5,0,0.7-0.2
			c0.2-0.2,0.3-0.4,0.3-0.7c0-0.5-0.3-0.9-0.7-1c-0.6-0.2-1.3-0.1-1.9,0.2C33.3,0,33,0.3,32.7,0.7c-0.3,0.4-0.5,0.8-0.6,1.3
			C32,2.5,31.9,3,31.8,3.5h-1.4l-0.1,0.7l1.4,0c-0.1,0.5-0.1,1.1-0.1,1.7S31.5,7,31.5,7.5c-0.1,0.7-0.1,1.4-0.2,2
			c0,0.6-0.1,1.2-0.1,1.8c0,0.6-0.1,1.1-0.2,1.5c-0.1,0.4-0.1,0.8-0.3,1.2c-0.1,0.3-0.2,0.5-0.4,0.7C30.2,14.9,30,15,29.8,15
			c-0.1,0-0.1,0-0.2,0c0.1,0,0.1-0.4,0.1-0.4c0-0.2-0.1-0.3-0.2-0.5c-0.1-0.2-0.4-0.3-0.6-0.4c-0.2,0-0.4,0.1-0.6,0.2
			c-0.4,0.4-0.5,1-0.1,1.4c0,0,0.1,0.1,0.1,0.1c0.4,0.2,0.8,0.3,1.2,0.2c0.4,0,0.8-0.1,1.1-0.3c0.4-0.2,0.7-0.5,0.9-0.9
			c0.3-0.4,0.4-0.9,0.6-1.3c0.1-0.5,0.3-1.1,0.3-1.6c0.1-0.6,0.2-1.2,0.2-1.8s0.1-1.3,0.2-1.9c0.1-0.6,0.1-1.2,0.1-1.8
			S33,4.7,33,4.2l2.2,0L35.2,3.6z"/>
		<path id="Path_10126" class="st0" d="M9.6,4.4C9.3,4.1,8.9,3.8,8.4,3.6c-0.5-0.2-1-0.3-1.5-0.3c-0.5,0-1.1,0.1-1.6,0.3
			C4.8,3.9,4.4,4.2,4.1,4.6C3,5.8,2.7,7.5,3.2,9.1c0.6,1.5,2,2.6,3.7,2.6c0.5,0,1.1-0.1,1.6-0.3c1.3-0.7,2.2-1.9,2.4-3.4
			C10.9,6.6,10.5,5.4,9.6,4.4z M9.1,8.9C9,9.7,8.6,10.3,8,10.7c-0.7,0.4-1.5,0.4-2.1,0C5.1,10,4.6,9,4.6,8c-0.2-1.3,0-3.1,1.2-3.8
			C6.1,4,6.5,3.9,6.9,3.9c0.4,0,0.8,0.1,1.1,0.3C9,5.1,9.2,6.7,9.2,7.9C9.2,8.3,9.2,8.6,9.1,8.9L9.1,8.9z"/>
		<path id="Path_10127" class="st0" d="M41.6,9.5c-0.1,0.2-0.3,0.4-0.5,0.5c-0.2,0.2-0.4,0.3-0.7,0.4c-0.2,0.1-0.5,0.2-0.7,0.3
			c-0.2,0.1-0.5,0.1-0.7,0.1c-0.4,0-0.8-0.1-1.2-0.3c-0.3-0.2-0.6-0.5-0.8-0.8c-0.2-0.4-0.4-0.8-0.5-1.3c-0.1-0.5-0.1-1-0.1-1.5h5.5
			c0,0,0-0.8,0-0.9c-0.1-0.8-0.4-1.5-1-2.1c-0.3-0.2-0.6-0.4-0.9-0.5c-0.4-0.1-0.8-0.2-1.2-0.2c-0.6,0-1.1,0.1-1.6,0.3
			c-1,0.5-1.7,1.3-2,2.3c-0.2,0.5-0.3,1-0.3,1.6c0,0.6,0.1,1.2,0.3,1.7c0.2,0.5,0.5,0.9,0.8,1.3c0.3,0.4,0.8,0.6,1.2,0.8
			c0.5,0.2,1,0.3,1.5,0.3c0.3,0,0.6,0,0.9-0.1c0.3-0.1,0.6-0.2,0.9-0.3c0.3-0.1,0.6-0.3,0.9-0.6c0.3-0.2,0.5-0.5,0.7-0.8L41.6,9.5z
			 M37.2,4.5c0.4-0.4,1-0.6,1.5-0.5c0.3,0,0.5,0.1,0.8,0.2c0.2,0.1,0.4,0.3,0.5,0.5c0.1,0.2,0.2,0.5,0.3,0.7
			c0.1,0.3,0.1,0.5,0.1,0.8h-4C36.5,5.5,36.7,4.9,37.2,4.5z"/>
		<path id="Path_10128" class="st0" d="M21.5,9.5C21.4,9.7,21.2,9.9,21,10c-0.2,0.2-0.4,0.3-0.7,0.4c-0.2,0.1-0.5,0.2-0.7,0.3
			c-0.2,0.1-0.5,0.1-0.7,0.1c-0.4,0-0.8-0.1-1.2-0.3c-0.3-0.2-0.6-0.5-0.8-0.8c-0.2-0.4-0.4-0.8-0.5-1.3c-0.1-0.5-0.1-1-0.1-1.5h5.5
			c0,0,0-0.8,0-0.9c-0.1-0.8-0.4-1.5-1-2.1c-0.3-0.2-0.6-0.4-0.9-0.5c-0.4-0.1-0.8-0.2-1.2-0.2c-0.6,0-1.1,0.1-1.6,0.3
			c-0.9,0.5-1.7,1.3-2,2.3c-0.2,0.5-0.3,1-0.3,1.6c0,0.6,0.1,1.2,0.3,1.7c0.2,0.5,0.5,0.9,0.8,1.3c0.3,0.4,0.8,0.6,1.2,0.8
			c0.5,0.2,1,0.3,1.5,0.3c0.3,0,0.6,0,0.9-0.1c0.3-0.1,0.6-0.2,0.9-0.3c0.3-0.1,0.6-0.3,0.9-0.6c0.3-0.2,0.5-0.5,0.7-0.8L21.5,9.5z
			 M17.1,4.5c0.4-0.4,1-0.6,1.5-0.5c0.3,0,0.5,0.1,0.8,0.2c0.2,0.1,0.4,0.3,0.5,0.5c0.1,0.2,0.2,0.5,0.3,0.7
			c0.1,0.3,0.1,0.5,0.1,0.8h-4C16.4,5.5,16.7,4.9,17.1,4.5L17.1,4.5z"/>
		<path id="Path_10129" class="st0" d="M41.9,3.6h-0.3V3.5h0.8v0.1H42v1h-0.1V3.6z"/>
		<path id="Path_10130" class="st0" d="M43.4,3.5v1h-0.1V3.7L43,4.6h-0.1l-0.3-0.9v0.9h-0.1v-1h0.1l0.3,0.9l0.3-0.9H43.4z"/>
	</g>
</g>
<path class="st0" d="M16,0C7.2,0,0,7.2,0,16s7.2,16,16,16s16-7.2,16-16S24.8,0,16,0z M18,21.6c-0.4,0.3-0.9,0.5-1.3,0.6
	c-0.5,0.1-1,0.2-1.5,0.2c-0.7,0-1.5-0.1-2.2-0.3c-0.5-0.2-1.1-0.4-1.5-0.7l0.1,0.8h-1l-0.1-4.1h0.7c0,0.5,0.1,0.9,0.3,1.4
	c0.2,0.4,0.5,0.8,0.8,1.1c0.3,0.3,0.7,0.5,1.1,0.7c0.6,0.2,1.2,0.3,1.9,0.2c0.6,0,1.1-0.3,1.6-0.7c0.4-0.4,0.6-1,0.5-1.6
	c-0.2-0.6-0.6-1.1-1.2-1.4c-1-0.5-2-0.9-3.1-1.3c-1.1-0.4-2-1.2-2.5-2.3c-0.4-1.3-0.1-2.7,0.9-3.6c0.7-0.6,1.6-1,2.6-1
	c1.2-0.1,2.4,0.3,3.4,1l-0.1-0.9h1v4.2h-0.8c0-0.4-0.1-0.8-0.2-1.2c0,0,0,0,0-0.1c0,0,0,0,0,0c-0.5-1.6-2.2-2.5-3.8-2
	c-0.4,0.1-0.8,0.4-1,0.7c-0.4,0.5-0.5,1.1-0.3,1.6c0.3,0.6,0.7,1,1.3,1.3c1.2,0.7,2.6,1,3.7,1.7c0.3,0.2,0.6,0.4,0.8,0.6l0,0
	c0.2,0.2,0.4,0.4,0.6,0.6C19.8,18.6,19.5,20.6,18,21.6z M21.4,22.4c-0.7,0-1.3-0.6-1.3-1.3s0.6-1.3,1.3-1.3c0.7,0,1.3,0.6,1.3,1.3
	S22.1,22.4,21.4,22.4z"/>
</svg>
