<svg xmlns="http://www.w3.org/2000/svg" width="86" height="32" viewBox="0 0 86 32">
  <g id="Group_487" data-name="Group 487" transform="translate(-29 -20)">
    <g id="Group_453" data-name="Group 453">
      <g id="Group_285" data-name="Group 285" transform="translate(42.606 8.525)">
        <path id="Path_10120" data-name="Path 10120" d="M30.478,49.224a3.474,3.474,0,0,0-.539-.377c-.772-.445-1.658-.667-2.427-1.117a1.788,1.788,0,0,1-.821-.839,1.112,1.112,0,0,1,.163-1.066,1.4,1.4,0,0,1,.667-.44,1.966,1.966,0,0,1,2.466,1.34,3.509,3.509,0,0,1,.157.8h.489V44.786h-.657l.038.6a3.369,3.369,0,0,0-2.226-.667,2.715,2.715,0,0,0-1.665.643,2.173,2.173,0,0,0-.612,2.305,2.855,2.855,0,0,0,1.61,1.508,19.342,19.342,0,0,1,1.994.86,1.538,1.538,0,0,1,.785.905,1.119,1.119,0,0,1-.334,1.018,1.7,1.7,0,0,1-1.007.438,2.636,2.636,0,0,1-1.222-.141,2.338,2.338,0,0,1-.726-.457,2.286,2.286,0,0,1-.511-.7,2.4,2.4,0,0,1-.225-.894h-.481l.092,2.688h.657l-.053-.542a4.2,4.2,0,0,0,.993.477,4.245,4.245,0,0,0,1.4.21,3.588,3.588,0,0,0,.981-.137,2.717,2.717,0,0,0,.87-.42,2.036,2.036,0,0,0,.147-3.251Z" transform="translate(0 -21.41)" fill="#090942"/>
        <path id="Path_10121" data-name="Path 10121" d="M124.192,30.77q.015-.241.015-.554l-.015-10.148h-.451a1.28,1.28,0,0,1-.214.157,1.451,1.451,0,0,1-.336.134,3.272,3.272,0,0,1-.554.1q-.34.035-.851.034v.657l1.107-.061a5.134,5.134,0,0,0-.042.542q0,.229,0,.473v7.4q0,.42-.011.771a2.145,2.145,0,0,1-.1.6.792.792,0,0,1-.271.393.9.9,0,0,1-.546.141v.466h3.192v-.641l-.985.046A4.88,4.88,0,0,0,124.192,30.77Z" transform="translate(-81.784 -0.503)" fill="#090942"/>
        <path id="Path_10122" data-name="Path 10122" d="M199.217,30.77q.015-.241.015-.554l-.015-10.148h-.451a1.292,1.292,0,0,1-.214.157,1.458,1.458,0,0,1-.336.134,3.271,3.271,0,0,1-.554.1q-.339.035-.851.034v.657l1.107-.061a5.355,5.355,0,0,0-.042.542q0,.229,0,.473v7.4q0,.42-.012.771a2.129,2.129,0,0,1-.1.6.788.788,0,0,1-.271.393.9.9,0,0,1-.546.141v.466h3.192v-.641l-.985.046A4.8,4.8,0,0,0,199.217,30.77Z" transform="translate(-145.439 -0.503)" fill="#090942"/>
        <path id="Path_10123" data-name="Path 10123" d="M230.926,24.38a.844.844,0,0,0,.271.195.782.782,0,0,0,.642,0,.8.8,0,0,0,.268-.195,1.058,1.058,0,0,0,.187-.294.9.9,0,0,0,.073-.359,1.041,1.041,0,0,0-.065-.37.969.969,0,0,0-.179-.3.841.841,0,0,0-.264-.2.731.731,0,0,0-.325-.072.755.755,0,0,0-.328.072.869.869,0,0,0-.271.2,1.014,1.014,0,0,0-.191,1.031A.9.9,0,0,0,230.926,24.38Z" transform="translate(-174.172 -2.804)" fill="#090942"/>
        <path id="Path_10124" data-name="Path 10124" d="M226.133,47.392v3.566q0,.42-.011.771a2.139,2.139,0,0,1-.1.6.79.79,0,0,1-.271.393.9.9,0,0,1-.546.141v.466H228.4v-.641l-.985.046a3.735,3.735,0,0,0,.054-.508q.007-.241.007-.554V45.361h-.45a1.358,1.358,0,0,1-.21.157,1.373,1.373,0,0,1-.332.134,3.277,3.277,0,0,1-.55.1q-.336.034-.847.034v.657l1.107-.061q-.038.313-.049.542T226.133,47.392Z" transform="translate(-169.428 -21.963)" fill="#090942"/>
        <path id="Path_10125" data-name="Path 10125" d="M240.974,23.551h-2.214q.053-.763.149-1.405a5.442,5.442,0,0,1,.267-1.1,1.857,1.857,0,0,1,.443-.714.955.955,0,0,1,.683-.256,1.071,1.071,0,0,1,.157.012c-.064-.01-.106.394-.107.432a.9.9,0,0,0,.638.905.822.822,0,0,0,.711-.162.937.937,0,0,0,.333-.655,1.007,1.007,0,0,0-.7-1.032,2.547,2.547,0,0,0-1.935.225,2.7,2.7,0,0,0-.92.859,4.5,4.5,0,0,0-.577,1.287,12.088,12.088,0,0,0-.332,1.6h-1.374l-.076.672,1.367-.015q-.092.809-.145,1.652t-.13,1.675q-.092,1.038-.153,1.992t-.13,1.782q-.069.828-.164,1.507a6.762,6.762,0,0,1-.256,1.164,2.025,2.025,0,0,1-.4.748.8.8,0,0,1-.611.263,1.162,1.162,0,0,1-.177-.014c.06.009.063-.411.06-.449a1.026,1.026,0,0,0-.157-.461.829.829,0,0,0-.6-.377.8.8,0,0,0-.577.187.987.987,0,0,0,.031,1.52,1.858,1.858,0,0,0,1.167.205,2.436,2.436,0,0,0,1.1-.317,2.713,2.713,0,0,0,.9-.89,4.877,4.877,0,0,0,.569-1.332,13.615,13.615,0,0,0,.336-1.646q.126-.878.2-1.833t.156-1.9q.084-.916.126-1.8t.1-1.691l2.215-.03Z" transform="translate(-176.732)" fill="#090942"/>
        <path id="Path_10126" data-name="Path 10126" d="M75.3,45.874a3.752,3.752,0,0,0-1.236-.844,3.941,3.941,0,0,0-1.543-.3,3.643,3.643,0,0,0-1.55.332,3.817,3.817,0,0,0-1.245.916,4.642,4.642,0,0,0-.877,4.52,3.891,3.891,0,0,0,3.672,2.554,3.6,3.6,0,0,0,1.554-.34A4.356,4.356,0,0,0,76.438,49.3,4.259,4.259,0,0,0,75.3,45.874Zm-.552,4.494a2.656,2.656,0,0,1-1.062,1.786,2.03,2.03,0,0,1-2.123-.042,3.813,3.813,0,0,1-1.327-2.706c-.158-1.273.038-3.062,1.228-3.807a1.95,1.95,0,0,1,1.058-.275,1.731,1.731,0,0,1,1.073.336c1.1.826,1.3,2.436,1.259,3.711A6.091,6.091,0,0,1,74.744,50.368Z" transform="translate(-36.656 -21.426)" fill="#090942"/>
        <path id="Path_10127" data-name="Path 10127" d="M285.282,50.913a2.718,2.718,0,0,1-.5.518,3.393,3.393,0,0,1-.654.416,4.116,4.116,0,0,1-.737.273,2.961,2.961,0,0,1-.749.1,2.335,2.335,0,0,1-1.18-.283,2.237,2.237,0,0,1-.806-.8,3.882,3.882,0,0,1-.458-1.255,8.724,8.724,0,0,1-.137-1.479h5.508c.022,0-.035-.843-.045-.919a3.3,3.3,0,0,0-1.025-2.054,2.8,2.8,0,0,0-.883-.522,3.485,3.485,0,0,0-1.226-.214,3.714,3.714,0,0,0-1.61.344,4.056,4.056,0,0,0-2.048,2.257,4.452,4.452,0,0,0-.282,1.577,4.754,4.754,0,0,0,.294,1.717,3.927,3.927,0,0,0,.806,1.306,3.489,3.489,0,0,0,1.21.833,3.9,3.9,0,0,0,1.508.289,4.229,4.229,0,0,0,.856-.095,4.122,4.122,0,0,0,.913-.309,4.477,4.477,0,0,0,.878-.554,3.56,3.56,0,0,0,.744-.829ZM280.9,45.845a2.168,2.168,0,0,1,1.511-.538,1.442,1.442,0,0,1,.78.2,1.66,1.66,0,0,1,.523.526,2.372,2.372,0,0,1,.294.731,3.759,3.759,0,0,1,.092.818H280.11A2.877,2.877,0,0,1,280.9,45.845Z" transform="translate(-214.707 -21.393)" fill="#090942"/>
        <path id="Path_10128" data-name="Path 10128" d="M152.857,50.913a2.722,2.722,0,0,1-.5.518,3.4,3.4,0,0,1-.654.416,4.117,4.117,0,0,1-.737.273,2.961,2.961,0,0,1-.749.1,2.335,2.335,0,0,1-1.18-.283,2.237,2.237,0,0,1-.806-.8,3.883,3.883,0,0,1-.458-1.255,8.725,8.725,0,0,1-.137-1.479h5.508c.022,0-.036-.843-.045-.919a3.3,3.3,0,0,0-1.025-2.054,2.8,2.8,0,0,0-.883-.522,3.486,3.486,0,0,0-1.226-.214,3.714,3.714,0,0,0-1.611.344,4.056,4.056,0,0,0-2.047,2.257,4.449,4.449,0,0,0-.282,1.577,4.754,4.754,0,0,0,.294,1.717,3.926,3.926,0,0,0,.806,1.306,3.487,3.487,0,0,0,1.21.833,3.9,3.9,0,0,0,1.508.289,4.229,4.229,0,0,0,.856-.095,4.123,4.123,0,0,0,.913-.309,4.474,4.474,0,0,0,.878-.554,3.56,3.56,0,0,0,.744-.829Zm-4.384-5.068a2.168,2.168,0,0,1,1.511-.538,1.442,1.442,0,0,1,.78.2,1.661,1.661,0,0,1,.523.526,2.365,2.365,0,0,1,.294.731,3.76,3.76,0,0,1,.092.818h-3.988A2.875,2.875,0,0,1,148.473,45.845Z" transform="translate(-102.352 -21.393)" fill="#090942"/>
        <path id="Path_10129" data-name="Path 10129" d="M324.044,46.247h-.327v-.09h.762v.09h-.324V47.2h-.111Z" transform="translate(-253.11 -22.638)" fill="#090942"/>
        <path id="Path_10130" data-name="Path 10130" d="M330.316,46.157V47.2h-.108v-.859l-.319.859h-.074l-.318-.859V47.2h-.108V46.157h.136l.327.9.33-.9Z" transform="translate(-257.922 -22.638)" fill="#090942"/>
      </g>
    </g>
    <g id="Group_487-2" data-name="Group 487" transform="translate(-6219.024 -2776.783)">
      <circle id="Ellipse_197" data-name="Ellipse 197" cx="16" cy="16" r="16" transform="translate(6248.024 2796.783)" fill="#004cd2"/>
      <g id="Group_487-3" data-name="Group 487" transform="translate(6258.43 2806.363)">
        <path id="Path_10120-2" data-name="Path 10120" d="M6299.946,2844.322a5.4,5.4,0,0,0-.832-.581c-1.19-.687-2.557-1.029-3.743-1.723a2.759,2.759,0,0,1-1.267-1.294,1.715,1.715,0,0,1,.252-1.645,2.161,2.161,0,0,1,1.028-.678,3.032,3.032,0,0,1,3.787,2.012c.006.018.012.037.017.055a5.365,5.365,0,0,1,.242,1.234h.754v-4.225h-1.013l.059.926a5.2,5.2,0,0,0-3.434-1.029,4.189,4.189,0,0,0-2.568.992,3.351,3.351,0,0,0-.944,3.555,4.4,4.4,0,0,0,2.483,2.326,29.875,29.875,0,0,1,3.076,1.326,2.372,2.372,0,0,1,1.21,1.4,1.725,1.725,0,0,1-.515,1.57,2.621,2.621,0,0,1-1.553.676,4.068,4.068,0,0,1-1.885-.218,3.608,3.608,0,0,1-1.12-.7,3.52,3.52,0,0,1-.788-1.08,3.694,3.694,0,0,1-.348-1.379h-.742l.142,4.146h1.013l-.082-.836a6.462,6.462,0,0,0,1.532.736,6.539,6.539,0,0,0,2.159.324,5.535,5.535,0,0,0,1.513-.211,4.186,4.186,0,0,0,1.342-.648,3.141,3.141,0,0,0,.227-5.014Z" transform="translate(-6292.104 -2837.364)" fill="#e4edfb"/>
        <circle id="Ellipse_198" data-name="Ellipse 198" cx="1.301" cy="1.301" r="1.301" transform="translate(9.687 10.238)" fill="#00d89d"/>
      </g>
    </g>
  </g>
</svg>
